<svg version="1.1" id="Layer_1" xmlns="http://www.w3.org/2000/svg"
  xmlns:xlink="http://www.w3.org/1999/xlink" x="0px" y="0px"
  viewBox="0 0 663.8 94.4" style="enable-background:new 0 0 663.8 94.4;" xml:space="preserve">
<style type="text/css">
	.st0{fill:#FFFFFF;}
	.st1{fill:#2C3E65;}
	.st2{fill:#6659E3;}
	.st3{fill:#09C9F7;}
	.st4{fill:#56CF7D;}
	.st5{fill:#F4C304;}
</style>
<g>
	<g >
		<path class="st1" d="M0,2.5h34.4c6.1,0,11.8,1.2,17.1,3.7c5.3,2.5,10,5.7,14,9.8c4,4.1,7.1,8.8,9.4,14.2c2.3,5.4,3.4,11.1,3.4,17
			c0,5.9-1.1,11.5-3.4,16.9c-2.3,5.4-5.4,10.2-9.4,14.3c-4,4.1-8.7,7.4-14,9.8c-5.3,2.5-11.1,3.7-17.3,3.7H0V2.5z M23.2,72.2h5.3
			c4,0,7.6-0.6,10.8-1.9c3.2-1.3,5.8-3,8-5.2c2.2-2.2,3.8-4.8,5-7.9c1.1-3,1.7-6.4,1.7-10c0-3.6-0.6-6.9-1.8-10
			c-1.2-3.1-2.9-5.7-5-7.9c-2.2-2.2-4.8-4-8-5.2c-3.2-1.3-6.7-1.9-10.7-1.9h-5.3V72.2z"/>
		<path class="st1" d="M143,22.2h-27.6v14.9h26.1v19.7h-26.1v15.4H143v19.7H92.1V2.5H143V22.2z"/>
		<path class="st1" d="M416,91.9V2.5h23.2l42.9,54.7V2.5h23.1v89.4h-23.1l-42.9-54.7v54.7H416z"/>
		<path class="st1" d="M573.8,22.2h-27.6v14.9h26.1v19.7h-26.1v15.4h27.6v19.7H523V2.5h50.9V22.2z"/>
		<path class="st1" d="M663.8,91.9h-28.9l-22.2-34.4v34.4h-23.2V2.5h36.2c5,0,9.3,0.7,13,2.2c3.7,1.5,6.8,3.5,9.2,6
			c2.4,2.5,4.2,5.5,5.5,8.8c1.2,3.3,1.8,6.9,1.8,10.7c0,6.8-1.6,12.3-4.9,16.5c-3.3,4.2-8.1,7.1-14.5,8.6L663.8,91.9z M612.7,42.4
			h4.4c4.6,0,8.1-0.9,10.6-2.8c2.4-1.9,3.7-4.6,3.7-8.2c0-3.6-1.2-6.3-3.7-8.2c-2.5-1.9-6-2.8-10.6-2.8h-4.4V42.4z"/>
		<polygon class="st1" points="284.1,2.5 267.6,26.9 251,2.5 223.3,2.5 255.9,49 255.9,91.9 279.1,91.9 279.1,49 311.8,2.5 		"/>
		<polygon class="st1" points="267.6,26.9 251,2.5 223.3,2.5 255.9,49 255.9,91.9 279.1,91.9 279.1,49 311.8,2.5 284.1,2.5 		"/>
		<path class="st1" d="M356.3,41.9v18h19.1c-0.4,2.6-1.1,4.8-2.3,6.6c-1.1,1.8-2.5,3.3-4.2,4.4c-1.7,1.1-3.6,2-5.8,2.5
			c-2.1,0.5-4.3,0.8-6.6,0.8c-3.9,0-7.3-0.7-10.2-2c-2.9-1.3-5.4-3.1-7.4-5.5c-2-2.4-3.5-5.2-4.4-8.4c-1-3.2-1.5-6.8-1.5-10.6
			c0-4.2,0.6-8,1.7-11.4c1.1-3.4,2.7-6.3,4.7-8.7c2-2.4,4.4-4.3,7.3-5.6c2.8-1.3,6-2,9.5-2c4.2,0,7.9,1.1,11.2,3.2
			c3.3,2.1,5.9,5.7,8,10.6l22.1-9.1c-4.1-8.5-9.7-14.7-16.7-18.7c-7-4-15.2-6-24.5-6c-6.3,0-12.1,0.9-17.4,2.7L330,15.3l-21.2,30.1
			c0,0.5,0,1.1,0,1.6c0,7,1.1,13.5,3.4,19.3c2.3,5.8,5.5,10.8,9.6,14.9c4.1,4.1,9,7.4,14.8,9.7c5.7,2.3,12.1,3.4,19,3.4
			c5.1,0,9.9-0.6,14.5-1.9c4.6-1.3,8.8-3.1,12.6-5.5c3.8-2.4,7.2-5.4,10-9c2.8-3.6,5.1-7.7,6.8-12.4c1.2-3.3,2-6.9,2.4-10.8
			c0.4-3.9,0.6-8.2,0.6-12.9H356.3z"/>
		<path class="st1" d="M207.7,25.4c-2.5-2.1-5.1-3.6-7.6-4.6c-2.5-1-5-1.5-7.4-1.5c-3,0-5.5,0.7-7.4,2.1c-1.9,1.4-2.8,3.3-2.8,5.6
			c0,1.6,0.5,2.9,1.4,3.9c0.9,1,2.2,1.9,3.7,2.7c1.5,0.8,3.3,1.4,5.2,2c1.9,0.6,3.9,1.1,5.8,1.8c7.6,2.5,13.1,5.9,16.7,10.1
			c3.5,4.2,5.3,9.7,5.3,16.5c0,4.6-0.8,8.7-2.3,12.4c-1.5,3.7-3.8,6.9-6.8,9.5c-3,2.6-6.6,4.7-10.9,6.2c-4.3,1.5-9.2,2.2-14.6,2.2
			c-11.3,0-21.8-3.4-31.4-10.1l10-18.7c3.5,3.1,6.9,5.4,10.3,6.9c3.4,1.5,6.8,2.3,10.1,2.3c3.8,0,6.6-0.9,8.5-2.6
			c1.9-1.7,2.8-3.7,2.8-5.9c0-1.3-0.2-2.5-0.7-3.5c-0.5-1-1.3-1.9-2.4-2.7c-1.1-0.8-2.5-1.6-4.3-2.3c-1.8-0.7-3.9-1.5-6.5-2.4
			c-3-0.9-5.9-2-8.8-3.1c-2.9-1.1-5.5-2.7-7.7-4.6c-2.3-1.9-4.1-4.3-5.5-7.2c-1.4-2.9-2.1-6.5-2.1-11c0-4.4,0.7-8.4,2.2-12
			c1.5-3.6,3.5-6.7,6.2-9.2c2.6-2.6,5.9-4.6,9.7-6c3.8-1.4,8.1-2.1,12.9-2.1c4.4,0,9.1,0.6,13.9,1.8c4.8,1.2,9.4,3,13.9,5.4
			L207.7,25.4z"/>
	</g>
</g>
</svg>