<svg width="205" height="38" viewBox="0 0 205 38" fill="none" xmlns="http://www.w3.org/2000/svg">
  <path
    d="M0 37.1329H5.28657V26.5215H0V37.1329ZM27.2115 0.867054H21.8743V11.4761H27.2115V0.867054ZM15.2812 15.5576C8.53132 13.5181 6.48949 11.6054 6.48949 8.36508C6.48949 5.12478 9.13157 3.31548 12.8199 3.31548C13.8372 3.31548 14.8762 3.49876 15.8549 3.87472V0.735469C14.4784 0.246723 12.9525 0 11.4096 0C6.46298 0 0.679806 3.01002 0.679806 9.5376C0.679806 16.0652 6.77636 18.906 13.0296 20.6472C20.1459 22.6374 23.1182 24.9143 23.1182 28.7679C23.1182 33.2559 19.36 35.0417 15.8019 35.0417C14.435 35.0417 13.0127 34.7574 11.6965 34.1817V37.0672C13.3406 37.6828 15.2088 38 17.1615 38C23.205 38 28.9882 34.5059 28.9882 27.6447C28.9882 21.8056 24.1741 18.2598 15.2788 15.5553L15.2812 15.5576ZM71.112 0.867054H64.7382L44.6816 18.2199V0.867054H34.1639V4.89686H39.2913V37.1329H44.6816V18.3938L64.8226 37.1329H72.5126L51.1445 17.7217L71.112 0.867054ZM152.867 4.89686H157.997V37.1329H163.356V0.867054H152.867V4.89686ZM91.6942 0C80.3376 0 72.2788 7.97502 72.2788 19C72.2788 30.025 80.3376 38 91.6942 38C103.051 38 111.11 30.025 111.11 19C111.11 7.97502 103.048 0 91.6942 0ZM91.6942 34.2005C84.2694 34.2005 78.7683 29.3624 78.7683 19C78.7683 8.63765 84.2694 3.79953 91.6942 3.79953C99.119 3.79953 104.62 8.63765 104.62 19C104.62 29.3624 99.119 34.2005 91.6942 34.2005ZM190.972 0.867054H184.688H177.75V4.89686H183.128L170.658 37.1329H175.489L179.565 26.1056H194.825L198.901 37.1329H205L190.972 0.867054ZM180.836 22.6679L187.195 5.4702L193.554 22.6679H180.836ZM135.768 0.867054H114.993V4.89686H120.123V37.1329H125.513V22.0359H134.934C144.509 22.0359 148.75 16.7818 148.75 11.4244C148.75 6.06703 144.615 0.867054 135.771 0.867054H135.768ZM135.139 18.1588H125.511V4.89686H134.932C139.956 4.89686 142.412 8.21234 142.412 11.6289C142.412 15.0454 140.006 18.1588 135.139 18.1588Z"
    fill="#3DDB2C" />
</svg>
  